<svg width="54" height="49" viewBox="0 0 54 49" fill="none" xmlns="http://www.w3.org/2000/svg">
<path fill-rule="evenodd" clip-rule="evenodd" d="M18.3555 8.5C18.3555 8.22386 18.5793 8 18.8555 8H29.4861C29.6187 8 29.7459 8.05268 29.8396 8.14645L33.7866 12.0935C33.8804 12.1872 33.9331 12.3144 33.9331 12.447V18.5517C33.9331 18.8279 33.7092 19.0517 33.4331 19.0517C33.157 19.0517 32.9331 18.8279 32.9331 18.5517V12.947H29.4861C29.2099 12.947 28.9861 12.7232 28.9861 12.447V9H19.3555V26.7878H25.4338C25.71 26.7878 25.9338 27.0116 25.9338 27.2878C25.9338 27.5639 25.71 27.7878 25.4338 27.7878H18.8555C18.5793 27.7878 18.3555 27.5639 18.3555 27.2878V8.5ZM29.9861 9.70711L32.226 11.947H29.9861V9.70711ZM21.5131 11.6576C21.5131 11.3815 21.7369 11.1576 22.0131 11.1576H22.9604H24.6632C25.2488 11.1576 26.1208 11.1646 26.7365 11.7402C26.9452 11.9354 27.1432 12.1956 27.2703 12.5346C27.4777 13.0878 27.4648 13.5609 27.4012 13.8894C27.3351 14.2311 27.1591 14.5307 26.9265 14.7598C26.8964 14.7894 26.866 14.8178 26.8354 14.845C26.4019 15.2305 25.8643 15.3798 25.3566 15.4373L26.7733 17.0333L28.0797 15.725C28.2749 15.5296 28.5915 15.5293 28.7869 15.7245C28.9823 15.9196 28.9825 16.2362 28.7873 16.4316L27.4383 17.7825L28.8075 19.325C28.9908 19.5315 28.972 19.8475 28.7655 20.0308C28.5589 20.2141 28.2429 20.1953 28.0596 19.9888L26.7246 18.4848L25.3606 19.8056C25.1623 19.9977 24.8457 19.9926 24.6536 19.7942C24.4615 19.5958 24.4666 19.2793 24.665 19.0872L26.0601 17.7362L24.0513 15.4731H23.4604V17.7623C23.4604 18.0385 23.2365 18.2623 22.9604 18.2623C22.6842 18.2623 22.4604 18.0385 22.4604 17.7623V14.9731V12.1576H22.0131C21.7369 12.1576 21.5131 11.9338 21.5131 11.6576ZM23.4604 12.1576V14.4731H24.276H24.5434C25.2604 14.4731 25.8112 14.4177 26.1709 14.0978C26.1893 14.0814 26.2073 14.0646 26.2248 14.0473C26.3291 13.9446 26.3957 13.8221 26.4194 13.6995C26.4532 13.525 26.4676 13.2421 26.334 12.8857C26.2691 12.7127 26.168 12.5777 26.0535 12.4707C25.7679 12.2037 25.3114 12.1576 24.6632 12.1576H23.4604ZM21.3289 21.1041C21.0528 21.1041 20.8289 21.3279 20.8289 21.6041C20.8289 21.8802 21.0528 22.1041 21.3289 22.1041H28.0652C28.3413 22.1041 28.5652 21.8802 28.5652 21.6041C28.5652 21.3279 28.3413 21.1041 28.0652 21.1041H21.3289ZM20.8816 23.4986C20.8816 23.2225 21.1054 22.9986 21.3816 22.9986H26.118C26.3941 22.9986 26.618 23.2225 26.618 23.4986C26.618 23.7748 26.3941 23.9986 26.118 23.9986H21.3816C21.1054 23.9986 20.8816 23.7748 20.8816 23.4986ZM33.1179 25.5541L32.7643 25.9076L32.7643 25.9076L30.6328 28.0391C29.6339 29.038 28.0144 29.038 27.0155 28.0391C26.0167 27.0403 26.0167 25.4208 27.0155 24.4219L31.2786 20.1589C32.2774 19.16 33.8969 19.16 34.8958 20.1589C35.8947 21.1578 35.8947 22.7772 34.8958 23.7761L33.1179 25.5541ZM30.6835 23.0943L32.4144 24.8433L34.1887 23.069C34.7971 22.4607 34.7971 21.4743 34.1887 20.866C33.5803 20.2576 32.594 20.2576 31.9857 20.866L27.7227 25.129C27.1143 25.7373 27.1143 26.7237 27.7227 27.332C28.331 27.9404 29.3173 27.9404 29.9257 27.332L31.7073 25.5504L29.9727 23.7977L30.6835 23.0943Z" fill="white"/>
<path d="M8.38068 38.7883V31.5156H10.8381C11.4063 31.5156 11.8726 31.6126 12.2372 31.8068C12.6018 31.9985 12.8717 32.2625 13.0469 32.5987C13.2221 32.9348 13.3097 33.3172 13.3097 33.7457C13.3097 34.1742 13.2221 34.5542 13.0469 34.8856C12.8717 35.217 12.603 35.4775 12.2408 35.6669C11.8786 35.8539 11.4157 35.9474 10.8523 35.9474H8.86364V35.1519H10.8239C11.2121 35.1519 11.5246 35.0951 11.7614 34.9815C12.0005 34.8678 12.1733 34.7069 12.2798 34.4985C12.3887 34.2878 12.4432 34.0369 12.4432 33.7457C12.4432 33.4545 12.3887 33.2 12.2798 32.9822C12.1709 32.7644 11.9969 32.5963 11.7578 32.4779C11.5187 32.3572 11.2027 32.2968 10.8097 32.2968H9.26136V38.7883H8.38068ZM11.804 35.5213L13.5938 38.7883H12.571L10.8097 35.5213H11.804ZM15.2033 31.5156L17.0783 34.5411H17.1351L19.0101 31.5156H20.0471L17.7601 35.1519L20.0471 38.7883H19.0101L17.1351 35.8195H17.0783L15.2033 38.7883H14.1664L16.5101 35.1519L14.1664 31.5156H15.2033ZM23.608 32.2968V31.5156H29.0625V32.2968H26.7756V38.7883H25.8949V32.2968H23.608ZM31.733 38.9019C31.2405 38.9019 30.8085 38.7847 30.4368 38.5504C30.0675 38.316 29.7786 37.9881 29.5703 37.5667C29.3643 37.1453 29.2614 36.6529 29.2614 36.0894C29.2614 35.5213 29.3643 35.0253 29.5703 34.6015C29.7786 34.1777 30.0675 33.8487 30.4368 33.6143C30.8085 33.3799 31.2405 33.2627 31.733 33.2627C32.2254 33.2627 32.6563 33.3799 33.0256 33.6143C33.3973 33.8487 33.6861 34.1777 33.892 34.6015C34.1004 35.0253 34.2045 35.5213 34.2045 36.0894C34.2045 36.6529 34.1004 37.1453 33.892 37.5667C33.6861 37.9881 33.3973 38.316 33.0256 38.5504C32.6563 38.7847 32.2254 38.9019 31.733 38.9019ZM31.733 38.1491C32.107 38.1491 32.4148 38.0532 32.6562 37.8615C32.8977 37.6697 33.0765 37.4176 33.1925 37.1051C33.3085 36.7926 33.3665 36.454 33.3665 36.0894C33.3665 35.7249 33.3085 35.3851 33.1925 35.0703C33.0765 34.7554 32.8977 34.5009 32.6562 34.3068C32.4148 34.1126 32.107 34.0156 31.733 34.0156C31.3589 34.0156 31.0511 34.1126 30.8097 34.3068C30.5682 34.5009 30.3894 34.7554 30.2734 35.0703C30.1574 35.3851 30.0994 35.7249 30.0994 36.0894C30.0994 36.454 30.1574 36.7926 30.2734 37.1051C30.3894 37.4176 30.5682 37.6697 30.8097 37.8615C31.0511 38.0532 31.3589 38.1491 31.733 38.1491ZM37.856 33.3338V34.044H35.0293V33.3338H37.856ZM35.8532 32.0269H36.6912V37.2258C36.6912 37.4625 36.7256 37.6401 36.7942 37.7585C36.8652 37.8745 36.9552 37.9526 37.0641 37.9928C37.1754 38.0307 37.2926 38.0497 37.4157 38.0497C37.508 38.0497 37.5837 38.0449 37.6429 38.0355C37.7021 38.0236 37.7495 38.0142 37.785 38.007L37.9554 38.7599C37.8986 38.7812 37.8193 38.8025 37.7175 38.8238C37.6157 38.8475 37.4867 38.8593 37.3304 38.8593C37.0937 38.8593 36.8617 38.8084 36.6344 38.7066C36.4095 38.6048 36.2225 38.4498 36.0733 38.2414C35.9266 38.0331 35.8532 37.7703 35.8532 37.4531V32.0269ZM40.7218 38.9161C40.3761 38.9161 40.0624 38.851 39.7807 38.7208C39.499 38.5883 39.2753 38.3977 39.1096 38.1491C38.9438 37.8981 38.861 37.5951 38.861 37.24C38.861 36.9275 38.9225 36.6742 39.0456 36.4801C39.1687 36.2836 39.3333 36.1297 39.5392 36.0184C39.7452 35.9071 39.9725 35.8243 40.2211 35.7698C40.472 35.713 40.7241 35.668 40.9775 35.6349C41.3089 35.5923 41.5776 35.5603 41.7836 35.539C41.9919 35.5153 42.1434 35.4763 42.2381 35.4218C42.3352 35.3674 42.3837 35.2727 42.3837 35.1377V35.1093C42.3837 34.7589 42.2878 34.4867 42.0961 34.2926C41.9067 34.0984 41.619 34.0014 41.2331 34.0014C40.833 34.0014 40.5194 34.089 40.2921 34.2642C40.0648 34.4393 39.905 34.6264 39.8127 34.8252L39.0172 34.5411C39.1593 34.2097 39.3487 33.9517 39.5854 33.767C39.8245 33.58 40.0849 33.4498 40.3667 33.3764C40.6507 33.3006 40.9301 33.2627 41.2047 33.2627C41.3799 33.2627 41.5811 33.284 41.8084 33.3267C42.0381 33.3669 42.2594 33.4509 42.4725 33.5788C42.6879 33.7066 42.8667 33.8996 43.0087 34.1576C43.1507 34.4157 43.2218 34.7613 43.2218 35.1945V38.7883H42.3837V38.0497H42.3411C42.2843 38.168 42.1896 38.2947 42.057 38.4296C41.9244 38.5646 41.748 38.6794 41.5279 38.7741C41.3077 38.8688 41.039 38.9161 40.7218 38.9161ZM40.8496 38.1633C41.181 38.1633 41.4604 38.0982 41.6877 37.968C41.9173 37.8378 42.0901 37.6697 42.2061 37.4637C42.3245 37.2578 42.3837 37.0411 42.3837 36.8139V36.0468C42.3482 36.0894 42.2701 36.1285 42.1493 36.164C42.031 36.1972 41.8936 36.2267 41.7374 36.2528C41.5835 36.2765 41.4332 36.2978 41.2864 36.3167C41.142 36.3333 41.0248 36.3475 40.9348 36.3593C40.717 36.3877 40.5134 36.4339 40.324 36.4978C40.137 36.5594 39.9855 36.6529 39.8695 36.7784C39.7559 36.9015 39.699 37.0695 39.699 37.2826C39.699 37.5738 39.8068 37.794 40.0222 37.9431C40.24 38.0899 40.5158 38.1633 40.8496 38.1633ZM45.5895 31.5156V38.7883H44.7514V31.5156H45.5895Z" fill="white"/>
</svg>
